Coordinates
version=1
nRows=10
nColumns=46
inDegrees=yes

Units are S.I. units (second, meters, Newtons, ...)
Angles are in degrees.

endheader
time	pelvis_tilt	pelvis_list	pelvis_rotation	pelvis_tx	pelvis_ty	pelvis_tz	bb_angle	bb_tx	bb_ty	bb_tz	hip_flexion_r	hip_adduction_r	hip_rotation_r	knee_angle_r	knee_angle_r_beta	ankle_angle_r	subtalar_angle_r	mtp_angle_r	crank_angle_r	hip_flexion_l	hip_adduction_l	hip_rotation_l	knee_angle_l	knee_angle_l_beta	ankle_angle_l	subtalar_angle_l	mtp_angle_l	crank_angle_l	lumbar_extension	lumbar_bending	lumbar_rotation	arm_flex_r	arm_add_r	arm_rot_r	elbow_flex_r	pro_sup_r	wrist_flex_r	wrist_dev_r	arm_flex_l	arm_add_l	arm_rot_l	elbow_flex_l	pro_sup_l	wrist_flex_l	wrist_dev_l
      7.50000000	    -15.88875327	      1.40727456	     -3.77801245	      0.19449098	      1.05297825	     -0.32044586	      0.00000000	      0.50000000	      0.00000000	      0.25000000	     66.09023732	     -2.88545048	      3.40863705	     57.41972990	      1.00216334	      0.00114103	     -8.08552830	      0.00000000	      0.00000000	     67.24521549	     -8.79418655	      2.03483885	     98.57523853	      1.72046247	    -12.64874346	     -3.12325376	      0.00000000	      0.00000000	    -68.10043942	     -2.28016889	     -0.37701270	     89.63705209	    -11.80625628	     25.85310805	     64.70232095	     28.39204680	      0.00000000	      0.00000000	     87.67415989	    -19.12617944	     26.58732956	     67.20905881	     39.35160268	      0.00000000	      0.00000000
      7.50500000	    -15.58172798	      1.90591071	     -3.53412817	      0.19536750	      1.05147748	     -0.31995747	      0.00000000	      0.50000000	      0.00000000	      0.25000000	     64.69056474	     -3.45797406	      3.68739222	     55.92653032	      0.97610209	     -1.06835202	     -7.44417034	      0.00000000	      0.00000000	     68.39248745	     -8.46230701	      1.93361695	    100.79378320	      1.75918338	    -12.22627241	     -3.30167039	      0.00000000	      0.00000000	    -68.19120144	     -2.56083367	     -0.94744885	     89.61969883	    -12.17294743	     25.89366628	     64.69149463	     28.40116397	      0.00000000	      0.00000000	     87.66749129	    -19.05385305	     26.75707304	     67.17620380	     39.37035443	      0.00000000	      0.00000000
      7.51000000	    -15.02153557	      1.86205879	     -3.25205957	      0.19641341	      1.05048467	     -0.31944839	      0.00000000	      0.50000000	      0.00000000	      0.25000000	     62.82375117	     -3.82873399	      3.36079158	     54.32304132	      0.94811593	     -2.30620979	     -6.95521264	      0.00000000	      0.00000000	     69.37959984	     -8.46774194	      2.39536350	    103.05156708	      1.79858914	    -11.42712243	     -2.87552601	      0.00000000	      0.00000000	    -68.49594252	     -2.50624528	     -0.61549860	     89.61862622	    -13.20823187	     26.80099272	     64.44735387	     28.42857742	      0.00000000	      0.00000000	     87.84154262	    -18.82515615	     27.61960063	     67.02131656	     39.45658165	      0.00000000	      0.00000000
      7.51500000	    -14.73635328	      2.35325593	     -2.97168152	      0.19718175	      1.04903210	     -0.31907677	      0.00000000	      0.50000000	      0.00000000	      0.25000000	     61.44635324	     -4.46901889	      3.63754825	     52.96559687	      0.92442406	     -3.29784263	     -6.32937996	      0.00000000	      0.00000000	     70.59789996	     -8.09898274	      2.36479005	    105.11627300	      1.83462506	    -10.99671712	     -2.97472809	      0.00000000	      0.00000000	    -68.51582393	     -2.76363328	     -1.18209364	     89.59516529	    -13.54542223	     26.84952158	     64.39361853	     28.44126805	      0.00000000	      0.00000000	     87.83068090	    -18.64560361	     27.76014478	     66.96213210	     39.46805564	      0.00000000	      0.00000000
      7.52000000	    -14.22722322	      2.50160235	     -2.60125462	      0.19801157	      1.04826885	     -0.31881867	      0.00000000	      0.50000000	      0.00000000	      0.25000000	     59.64891184	     -5.07211120	      3.35792089	     51.43718849	      0.89774830	     -4.48565675	     -5.68664352	      0.00000000	      0.00000000	     71.62041589	     -7.83455749	      2.66093128	    107.10332436	      1.86930565	    -10.18665739	     -2.58149854	      0.00000000	      0.00000000	    -68.67894259	     -2.81395557	     -0.90191212	     89.59651018	    -15.05246717	     28.63133286	     64.02531225	     28.53276881	      0.00000000	      0.00000000	     88.15662887	    -17.75945236	     28.92870067	     65.52428359	     39.38043121	      0.00000000	      0.00000000
      7.52500000	    -13.93901721	      2.89325512	     -2.30876664	      0.19865586	      1.04744690	     -0.31828361	      0.00000000	      0.50000000	      0.00000000	      0.25000000	     58.18390837	     -5.70465854	      3.39550253	     50.03030425	      0.87319353	     -5.51965517	     -4.91655565	      0.00000000	      0.00000000	     72.80837513	     -7.51113100	      2.65513677	    108.87416356	      1.90021262	     -9.71722638	     -2.73103474	      0.00000000	      0.00000000	    -68.74375516	     -3.03412466	     -1.40631134	     89.56274369	    -15.26039297	     28.63045384	     63.91136311	     28.53935927	      0.00000000	      0.00000000	     88.23983414	    -17.51804678	     28.94721748	     65.51685482	     39.38817389	      0.00000000	      0.00000000
      7.53000000	    -13.31139829	      3.07301912	     -1.85884636	      0.19910817	      1.04748786	     -0.31795332	      0.00000000	      0.50000000	      0.00000000	      0.25000000	     56.21425411	     -6.37172290	      3.08310379	     48.51579328	      0.84676033	     -6.54251389	     -4.13289264	      0.00000000	      0.00000000	     73.67417000	     -7.10923205	      2.93016787	    110.52645236	      1.92905050	     -9.11476650	     -2.56605304	      0.00000000	      0.00000000	    -69.03075398	     -3.03983860	     -1.45661199	     89.57341078	    -15.87040481	     29.27225255	     62.83583170	     28.46588819	      0.00000000	      0.00000000	     88.44329651	    -16.56975414	     28.92164891	     64.24355120	     39.18702288	      0.00000000	      0.00000000
      7.53500000	    -13.10575175	      3.43373968	     -1.59065365	      0.19955317	      1.04708253	     -0.31741090	      0.00000000	      0.50000000	      0.00000000	      0.25000000	     54.79821994	     -7.00297986	      2.93011984	     47.10970562	      0.82221947	     -7.64834802	     -3.36821598	      0.00000000	      0.00000000	     74.93480426	     -6.78420888	      2.90638459	    112.04827284	      1.95561128	     -8.61108892	     -2.77180525	      0.00000000	      0.00000000	    -69.03123747	     -3.29666986	     -1.98599880	     89.54094376	    -15.99232670	     29.29203747	     62.64820979	     28.46665388	      0.00000000	      0.00000000	     88.50140498	    -16.27408561	     28.96567175	     64.21011528	     39.19132904	      0.00000000	      0.00000000
      7.54000000	    -12.86418780	      3.70851027	     -1.28293435	      0.19992758	      1.04703645	     -0.31690656	      0.00000000	      0.50000000	      0.00000000	      0.25000000	     53.30236363	     -7.60885254	      2.65250211	     45.70290833	      0.79766623	     -8.83136769	     -2.50051649	      0.00000000	      0.00000000	     76.16454843	     -6.50664979	      2.93171073	    113.41739766	      1.97950702	     -8.16865011	     -2.92813562	      0.00000000	      0.00000000	    -69.06132919	     -3.46276127	     -2.40721060	     89.51323605	    -16.07432221	     29.41172896	     62.22579650	     28.43087046	      0.00000000	      0.00000000	     88.52661659	    -15.93574141	     29.03587780	     64.06834822	     39.17850053	      0.00000000	      0.00000000
      7.54500000	    -12.66975533	      3.96941268	     -1.02610463	      0.20008704	      1.04721221	     -0.31643533	      0.00000000	      0.50000000	      0.00000000	      0.25000000	     51.86882621	     -8.15797968	      2.38201394	     44.29586557	      0.77310870	    -10.09261225	     -1.64249880	      0.00000000	      0.00000000	     77.43420032	     -6.20685827	      2.99915416	    114.66537046	      2.00128825	     -7.59938606	     -3.16483588	      0.00000000	      0.00000000	    -69.06771371	     -3.70019684	     -2.85526196	     89.49341307	    -16.15383819	     29.56190320	     61.68134645	     28.36831534	      0.00000000	      0.00000000	     88.59963079	    -15.57007774	     29.11136319	     63.84022227	     39.14876293	      0.00000000	      0.00000000
